<svg width="44" height="321" viewBox="0 0 44 321" fill="none" xmlns="http://www.w3.org/2000/svg">
<path d="M7.4 216.699H20L20 218.013H8.552V225.987H20V227.301H7.4L7.4 216.699ZM20.09 208.847C20.09 209.759 19.886 210.581 19.478 211.313C19.058 212.045 18.482 212.621 17.75 213.041C17.018 213.461 16.19 213.671 15.266 213.671C14.342 213.671 13.514 213.461 12.782 213.041C12.05 212.621 11.48 212.045 11.072 211.313C10.664 210.581 10.46 209.759 10.46 208.847C10.46 207.935 10.664 207.113 11.072 206.381C11.48 205.649 12.05 205.079 12.782 204.671C13.514 204.251 14.342 204.041 15.266 204.041C16.19 204.041 17.018 204.251 17.75 204.671C18.482 205.079 19.058 205.649 19.478 206.381C19.886 207.113 20.09 207.935 20.09 208.847ZM18.956 208.847C18.956 208.175 18.806 207.575 18.506 207.047C18.194 206.507 17.756 206.087 17.192 205.787C16.628 205.487 15.986 205.337 15.266 205.337C14.546 205.337 13.904 205.487 13.34 205.787C12.776 206.087 12.344 206.507 12.044 207.047C11.732 207.575 11.576 208.175 11.576 208.847C11.576 209.519 11.732 210.125 12.044 210.665C12.344 211.193 12.776 211.613 13.34 211.925C13.904 212.225 14.546 212.375 15.266 212.375C15.986 212.375 16.628 212.225 17.192 211.925C17.756 211.613 18.194 211.193 18.506 210.665C18.806 210.125 18.956 209.519 18.956 208.847ZM10.532 192.814H20V194.092H11.666V200.032H20V201.31H10.532V192.814ZM10.532 181.135L21.134 185.869C22.022 186.253 22.652 186.697 23.024 187.201C23.396 187.705 23.582 188.311 23.582 189.019C23.582 189.475 23.51 189.901 23.366 190.297C23.222 190.693 23.006 191.035 22.718 191.323L21.764 190.729C22.244 190.249 22.484 189.673 22.484 189.001C22.484 188.569 22.364 188.203 22.124 187.903C21.884 187.591 21.476 187.303 20.9 187.039L19.982 186.625L10.532 190.855V189.523L18.578 185.959L10.532 182.395V181.135ZM10.532 171.826H20V173.104H11.666L11.666 177.64L14.006 177.766C15.974 177.862 17.486 178.09 18.542 178.45C19.598 178.81 20.126 179.452 20.126 180.376C20.126 180.628 20.078 180.934 19.982 181.294L18.884 181.204C18.932 180.988 18.956 180.838 18.956 180.754C18.956 180.262 18.728 179.89 18.272 179.638C17.816 179.386 17.252 179.218 16.58 179.134C15.908 179.05 15.02 178.978 13.916 178.918L10.532 178.756L10.532 171.826ZM10.532 160.921H20V162.091H16.868V165.061V165.421L20 167.617V169.003L16.688 166.645C16.484 167.377 16.136 167.941 15.644 168.337C15.152 168.733 14.528 168.931 13.772 168.931C12.716 168.931 11.912 168.571 11.36 167.851C10.808 167.131 10.532 166.147 10.532 164.899V160.921ZM13.808 167.635C15.212 167.635 15.914 166.741 15.914 164.953V162.091H11.666V164.863C11.666 166.711 12.38 167.635 13.808 167.635ZM10.46 152.399C10.46 151.511 10.664 150.707 11.072 149.987C11.468 149.267 12.032 148.703 12.764 148.295C13.496 147.887 14.33 147.683 15.266 147.683C16.214 147.683 17.054 147.887 17.786 148.295C18.518 148.703 19.088 149.267 19.496 149.987C19.892 150.695 20.09 151.499 20.09 152.399C20.09 153.167 19.934 153.863 19.622 154.487C19.298 155.099 18.83 155.603 18.218 155.999H23.492V157.277H10.532V156.053H12.404C11.78 155.669 11.3 155.165 10.964 154.541C10.628 153.905 10.46 153.191 10.46 152.399ZM18.956 152.489C18.956 151.829 18.806 151.229 18.506 150.689C18.194 150.149 17.756 149.729 17.192 149.429C16.628 149.117 15.986 148.961 15.266 148.961C14.546 148.961 13.91 149.117 13.358 149.429C12.794 149.729 12.356 150.149 12.044 150.689C11.732 151.229 11.576 151.829 11.576 152.489C11.576 153.161 11.732 153.767 12.044 154.307C12.356 154.835 12.794 155.255 13.358 155.567C13.91 155.867 14.546 156.017 15.266 156.017C15.986 156.017 16.628 155.867 17.192 155.567C17.756 155.255 18.194 154.835 18.506 154.307C18.806 153.767 18.956 153.161 18.956 152.489ZM10.532 144.937V143.659H14.726V137.701H10.532V136.423H20V137.701H15.824V143.659H20V144.937H10.532ZM20.09 128.884C20.09 129.796 19.886 130.618 19.478 131.35C19.058 132.082 18.482 132.658 17.75 133.078C17.018 133.498 16.19 133.708 15.266 133.708C14.342 133.708 13.514 133.498 12.782 133.078C12.05 132.658 11.48 132.082 11.072 131.35C10.664 130.618 10.46 129.796 10.46 128.884C10.46 127.972 10.664 127.15 11.072 126.418C11.48 125.686 12.05 125.116 12.782 124.708C13.514 124.288 14.342 124.078 15.266 124.078C16.19 124.078 17.018 124.288 17.75 124.708C18.482 125.116 19.058 125.686 19.478 126.418C19.886 127.15 20.09 127.972 20.09 128.884ZM18.956 128.884C18.956 128.212 18.806 127.612 18.506 127.084C18.194 126.544 17.756 126.124 17.192 125.824C16.628 125.524 15.986 125.374 15.266 125.374C14.546 125.374 13.904 125.524 13.34 125.824C12.776 126.124 12.344 126.544 12.044 127.084C11.732 127.612 11.576 128.212 11.576 128.884C11.576 129.556 11.732 130.162 12.044 130.702C12.344 131.23 12.776 131.65 13.34 131.962C13.904 132.262 14.546 132.412 15.266 132.412C15.986 132.412 16.628 132.262 17.192 131.962C17.756 131.65 18.194 131.23 18.506 130.702C18.806 130.162 18.956 129.556 18.956 128.884ZM20.09 117.387C20.09 118.323 19.886 119.163 19.478 119.907C19.07 120.639 18.5 121.215 17.768 121.635C17.024 122.055 16.19 122.265 15.266 122.265C14.342 122.265 13.514 122.055 12.782 121.635C12.05 121.215 11.48 120.639 11.072 119.907C10.664 119.163 10.46 118.323 10.46 117.387C10.46 116.571 10.622 115.845 10.946 115.209C11.258 114.561 11.72 114.051 12.332 113.679L12.98 114.633C12.512 114.945 12.164 115.341 11.936 115.821C11.696 116.301 11.576 116.823 11.576 117.387C11.576 118.071 11.732 118.689 12.044 119.241C12.344 119.781 12.776 120.207 13.34 120.519C13.904 120.819 14.546 120.969 15.266 120.969C15.998 120.969 16.646 120.819 17.21 120.519C17.762 120.207 18.194 119.781 18.506 119.241C18.806 118.689 18.956 118.071 18.956 117.387C18.956 116.823 18.842 116.301 18.614 115.821C18.386 115.341 18.038 114.945 17.57 114.633L18.218 113.679C18.83 114.051 19.298 114.561 19.622 115.209C19.934 115.857 20.09 116.583 20.09 117.387ZM11.666 104.72V108.302H20V109.58H11.666V113.162H10.532V104.72H11.666ZM13.88 98.8044C13.892 97.6164 14.156 96.7164 14.672 96.1044C15.188 95.4804 15.932 95.1684 16.904 95.1684C17.912 95.1684 18.686 95.5044 19.226 96.1764C19.766 96.8364 20.03 97.7964 20.018 99.0564L20 102.872H10.532V101.594H13.844L13.88 98.8044ZM19.046 99.1284C19.058 98.2524 18.884 97.5924 18.524 97.1484C18.152 96.6924 17.612 96.4644 16.904 96.4644C16.208 96.4644 15.692 96.6864 15.356 97.1304C15.02 97.5744 14.846 98.2404 14.834 99.1284L14.798 101.594H19.01L19.046 99.1284Z" fill="black"/>
<path d="M33.0607 0.93934C32.4749 0.353553 31.5251 0.353553 30.9393 0.93934L21.3934 10.4853C20.8076 11.0711 20.8076 12.0208 21.3934 12.6066C21.9792 13.1924 22.9289 13.1924 23.5147 12.6066L32 4.12132L40.4853 12.6066C41.0711 13.1924 42.0208 13.1924 42.6066 12.6066C43.1924 12.0208 43.1924 11.0711 42.6066 10.4853L33.0607 0.93934ZM33.5 152L33.5 2H30.5L30.5 152H33.5Z" fill="#C5C3D0"/>
<path d="M30.9393 320.047C31.5251 320.633 32.4749 320.633 33.0607 320.047L42.6066 310.501C43.1924 309.915 43.1924 308.966 42.6066 308.38C42.0208 307.794 41.0711 307.794 40.4853 308.38L32 316.865L23.5147 308.38C22.9289 307.794 21.9792 307.794 21.3934 308.38C20.8076 308.966 20.8076 309.915 21.3934 310.501L30.9393 320.047ZM30.5 168.986L30.5 318.986H33.5L33.5 168.986H30.5Z" fill="#34365C"/>
</svg>
