<svg width="33" height="30" viewBox="0 0 33 30" fill="none" xmlns="http://www.w3.org/2000/svg">
<path d="M30.9459 2.69872H11.7584C11.2309 1.13196 9.74899 0 8.00662 0C6.26425 0 4.78232 1.13196 4.25481 2.69872H1.25979C0.564049 2.69872 0 3.26277 0 3.95851C0 4.65424 0.564049 5.21829 1.25979 5.21829H4.25489C4.78241 6.78505 6.26433 7.91701 8.0067 7.91701C9.74907 7.91701 11.231 6.78505 11.7585 5.21829H30.946C31.6417 5.21829 32.2058 4.65424 32.2058 3.95851C32.2058 3.26277 31.6417 2.69872 30.9459 2.69872V2.69872ZM8.00662 5.39744C7.21321 5.39744 6.56769 4.75192 6.56769 3.95851C6.56769 3.16509 7.21321 2.51958 8.00662 2.51958C8.80004 2.51958 9.44555 3.16509 9.44555 3.95851C9.44555 4.75192 8.80004 5.39744 8.00662 5.39744Z" fill="black"/>
<path d="M30.9459 13.4936H27.9508C27.4233 11.9269 25.9413 10.7949 24.199 10.7949C22.4567 10.7949 20.9748 11.9269 20.4473 13.4936H1.25979C0.564049 13.4936 0 14.0577 0 14.7534C0 15.4492 0.564049 16.0132 1.25979 16.0132H20.4473C20.9748 17.58 22.4568 18.7119 24.1991 18.7119C25.9414 18.7119 27.4234 17.58 27.9509 16.0132H30.946C31.6417 16.0132 32.2058 15.4492 32.2058 14.7534C32.2058 14.0577 31.6417 13.4936 30.9459 13.4936ZM24.1991 16.1924C23.4057 16.1924 22.7602 15.5468 22.7602 14.7534C22.7602 13.96 23.4057 13.3145 24.1991 13.3145C24.9925 13.3145 25.638 13.96 25.638 14.7534C25.638 15.5468 24.9925 16.1924 24.1991 16.1924Z" fill="black"/>
<path d="M30.9459 24.2886H17.156C16.6284 22.7218 15.1465 21.5898 13.4041 21.5898C11.6618 21.5898 10.1798 22.7218 9.65232 24.2886H1.25979C0.564049 24.2886 0 24.8526 0 25.5483C0 26.2441 0.564049 26.8081 1.25979 26.8081H9.65232C10.1798 28.3749 11.6618 29.5069 13.4041 29.5069C15.1465 29.5069 16.6284 28.3749 17.156 26.8081H30.946C31.6417 26.8081 32.2058 26.2441 32.2058 25.5483C32.2058 24.8526 31.6417 24.2886 30.9459 24.2886ZM13.4041 26.9874C12.6107 26.9874 11.9652 26.3418 11.9652 25.5484C11.9652 24.755 12.6107 24.1095 13.4041 24.1095C14.1976 24.1095 14.8431 24.7549 14.8431 25.5483C14.8431 26.3418 14.1976 26.9874 13.4041 26.9874V26.9874Z" fill="black"/>
</svg>
