<svg width="1417" height="281" viewBox="0 0 1417 281" fill="none" xmlns="http://www.w3.org/2000/svg">
<path d="M0 205H1417V207H0V205Z" fill="white"/>
<path d="M0 131H1417V133H0V131Z" fill="white"/>
<path d="M0 94H1417V96H0V94Z" fill="white"/>
<path d="M0 57H1417V59H0V57Z" fill="white"/>
<path d="M0 20H1417V22H0V20Z" fill="white"/>
<path d="M0 242H1417V244H0V242Z" fill="white"/>
<path d="M0 168H1417V170H0V168Z" fill="white"/>
<path d="M0 279H1417V281H0V279Z" fill="#34365C"/>
<path d="M1274 68C1274 65.2386 1276.24 63 1279 63H1309C1311.76 63 1314 65.2386 1314 68V279H1274V68Z" fill="#9794AB" fill-opacity="0.8"/>
<path d="M1349 123C1349 120.239 1351.24 118 1354 118H1384C1386.76 118 1389 120.239 1389 123V279H1349V123Z" fill="#BAB8D2" fill-opacity="0.8"/>
<path d="M894 114C894 111.239 896.239 109 899 109H929C931.761 109 934 111.239 934 114V279H894V114Z" fill="#9592AB" fill-opacity="0.8"/>
<path d="M979 87C979 84.2386 981.239 82 984 82H1014C1016.76 82 1019 84.2386 1019 87V279H979V87Z" fill="#BAB8D2" fill-opacity="0.8"/>
<path d="M704 166C704 163.239 706.239 161 709 161H739C741.761 161 744 163.239 744 166V279H704V166Z" fill="#9592AB" fill-opacity="0.8"/>
<path d="M784 138C784 135.239 786.239 133 789 133H819C821.761 133 824 135.239 824 138V279H784V138Z" fill="#9C9DD2" fill-opacity="0.8"/>
<path d="M1094 251C1094 248.239 1096.24 246 1099 246H1129C1131.76 246 1134 248.239 1134 251V279H1094V251Z" fill="#9592AB" fill-opacity="0.8"/>
<path d="M1169 5C1169 2.23858 1171.24 0 1174 0H1204C1206.76 0 1209 2.23858 1209 5V279H1169V5Z" fill="#BAB8D2" fill-opacity="0.8"/>
<path d="M839 87C839 84.2386 841.239 82 844 82H874C876.761 82 879 84.2386 879 87V279H839V87Z" fill="#BAB8D2" fill-opacity="0.8"/>
<path d="M129 101C129 98.2386 131.239 96 134 96H164C166.761 96 169 98.2386 169 101V279H129V101Z" fill="#9592AB" fill-opacity="0.8"/>
<path d="M19 209C19 206.239 21.2386 204 24 204H54C56.7614 204 59 206.239 59 209V279H19V209Z" fill="#9C9DD2" fill-opacity="0.8"/>
<path d="M364 120C364 117.239 366.239 115 369 115H399C401.761 115 404 117.239 404 120V279H364V120Z" fill="#9C9DD2" fill-opacity="0.8"/>
<path d="M74 166C74 163.239 76.2386 161 79 161H109C111.761 161 114 163.239 114 166V279H74V166Z" fill="#BAB8D2" fill-opacity="0.8"/>
<path d="M419 150C419 147.239 421.239 145 424 145H454C456.761 145 459 147.239 459 150V279H419V150Z" fill="#BAB8D2" fill-opacity="0.8"/>
<path d="M179 246C179 243.239 181.239 241 184 241H214C216.761 241 219 243.239 219 246V279H179V246Z" fill="#9592AB" fill-opacity="0.8"/>
<path d="M539 251C539 248.239 541.239 246 544 246H574C576.761 246 579 248.239 579 251V279H539V251Z" fill="#9592AB" fill-opacity="0.8"/>
<path d="M614 195C614 192.239 616.239 190 619 190H649C651.761 190 654 192.239 654 195V279H614V195Z" fill="#BAB8D2" fill-opacity="0.8"/>
<path d="M284 251C284 248.239 286.239 246 289 246H319C321.761 246 324 248.239 324 251V279H284V251Z" fill="#BAB8D2" fill-opacity="0.8"/>
<path d="M1224 138C1224 135.239 1226.24 133 1229 133H1259C1261.76 133 1264 135.239 1264 138V279H1224V138Z" fill="#9C9DD2" fill-opacity="0.8"/>
<path d="M1029 138C1029 135.239 1031.24 133 1034 133H1064C1066.76 133 1069 135.239 1069 138V279H1029V138Z" fill="#9C9DD2" fill-opacity="0.8"/>
</svg>
