<svg width="24" height="19" viewBox="0 0 24 19" fill="none" xmlns="http://www.w3.org/2000/svg">
<path d="M6.92377 15.3352C8.43492 16.7948 10.8279 18.2544 11.8618 18.8558C12.1723 19.0364 12.5528 19.0267 12.8544 18.8316C13.806 18.2159 15.943 16.7756 17.4342 15.3352C18.748 14.0661 20.9045 12.2686 22.2183 10.365C23.499 8.50947 24.3235 6.11498 23.5321 4.01995C22.7215 1.87382 21.2514 0.669438 18.934 0.21305C18.1799 0.0645433 17.7202 0.0787581 16.9633 0.21305C15.492 0.474066 14.6522 1.01956 13.6788 2.11658C12.9321 2.95796 12.3649 4.65462 12.3649 4.65462C12.3649 4.65462 11.7978 2.95796 11.0511 2.11658C10.0777 1.01956 9.23787 0.474066 7.76663 0.21305C7.00969 0.0787581 6.55002 0.0645433 5.79593 0.21305C3.47846 0.669438 1.95968 1.85731 1.19748 4.01995C-0.241439 8.10269 3.66148 12.1416 6.75436 15.1704C6.81113 15.226 6.86762 15.2809 6.92377 15.3352Z" fill="#D9D8E9"/>
</svg>
