<svg width="55" height="55" viewBox="0 0 55 55" fill="none" xmlns="http://www.w3.org/2000/svg">
<path d="M53.4269 7.51898C52.6178 6.70849 51.305 6.70709 50.4959 7.51555L25.6285 32.3173L16.6564 22.5728C15.8811 21.7312 14.5704 21.6767 13.7274 22.4518C12.8851 23.2271 12.8312 24.5385 13.6065 25.3808L24.0399 36.7117C24.422 37.127 24.9568 37.3682 25.5206 37.3799C25.5358 37.3805 25.5504 37.3805 25.5649 37.3805C26.1129 37.3805 26.64 37.1629 27.0283 36.776L53.4228 10.4506C54.234 9.64229 54.2354 8.32948 53.4269 7.51898Z" />
<path d="M52.9271 25.4271C51.7822 25.4271 50.8543 26.355 50.8543 27.5C50.8543 40.3781 40.3781 50.8543 27.5 50.8543C14.6227 50.8543 4.14573 40.3781 4.14573 27.5C4.14573 14.6227 14.6227 4.14573 27.5 4.14573C28.6449 4.14573 29.5729 3.21782 29.5729 2.07292C29.5729 0.92791 28.6449 0 27.5 0C12.3363 0 0 12.3363 0 27.5C0 42.663 12.3363 55 27.5 55C42.663 55 55 42.663 55 27.5C55 26.3551 54.0721 25.4271 52.9271 25.4271Z" />
</svg>
